<svg xmlns="http://www.w3.org/2000/svg" width="100%" focusable="false" height="100%">
    <svg id="be" xmlns="http://www.w3.org/2000/svg" width="100%" height="100%" viewBox="0 0 640 480"><g fill-rule="evenodd" stroke-width="1pt"><path d="M0 0h213.335v479.997H0z"/><path fill="#ffd90c" d="M213.335 0H426.67v479.997H213.335z"/><path fill="#f31830" d="M426.67 0h213.335v479.997H426.67z"/></g></svg>    
    <svg id="ja" xmlns="http://www.w3.org/2000/svg" width="100%" height="100%" viewBox="0 0 640 480"><defs><clipPath id="a"><path fill-opacity=".67" d="M-88.001 32h640v480h-640z"/></clipPath></defs><g fill-rule="evenodd" stroke-width="1pt" clip-path="url(#a)" transform="translate(88.001 -32)"><path fill="#fff" d="M-128 32h720v480h-720z"/><circle cx="523.08" cy="344.05" r="194.93" fill="#d30000" transform="translate(-168.44 8.618) scale(.76554)"/></g></svg>
    <svg id="it" xmlns="http://www.w3.org/2000/svg" width="100%" height="100%" viewBox="0 0 640 480"><g fill-rule="evenodd" stroke-width="1pt"><path fill="#fff" d="M0 0h640v479.997H0z"/><path fill="#009246" d="M0 0h213.331v479.997H0z"/><path fill="#ce2b37" d="M426.663 0h213.331v479.997H426.663z"/></g></svg>
    <svg id="fr" xmlns="http://www.w3.org/2000/svg" width="100%" height="100%" viewBox="0 0 640 480"><g fill-rule="evenodd" stroke-width="1pt"><path fill="#fff" d="M0 0h640v480H0z"/><path fill="#00267f" d="M0 0h213.337v480H0z"/><path fill="#f31830" d="M426.662 0H640v480H426.662z"/></g></svg>
    <svg id="en" xmlns="http://www.w3.org/2000/svg" width="100%" height="100%" viewBox="0 0 640 480"><path fill="#fff" d="M0 0h640v480H0z"/><path fill="#ce1124" d="M281.6 0h76.8v480h-76.8z"/><path fill="#ce1124" d="M0 201.6h640v76.8H0z"/></svg>
</svg>